<?xml version="1.0" standalone="no"?>
<!DOCTYPE svg PUBLIC "-//W3C//DTD SVG 20010904//EN"
 "http://www.w3.org/TR/2001/REC-SVG-20010904/DTD/svg10.dtd">
<svg version="1.0" xmlns="http://www.w3.org/2000/svg"
 width="200.000000pt" height="200.000000pt" viewBox="0 0 200.000000 200.000000"
 preserveAspectRatio="xMidYMid meet">
<metadata>
Created by potrace 1.14, written by Peter Selinger 2001-2017
</metadata>
<g transform="translate(0.000000,200.000000) scale(0.100000,-0.100000)"
fill="#000000" stroke="none">
<path d="M445 1757 c-66 -34 -105 -157 -110 -345 -2 -119 -3 -124 -32 -160
-63 -81 -127 -195 -147 -265 -29 -100 -15 -200 38 -269 14 -19 26 -46 26 -60
0 -37 22 -142 31 -153 5 -5 9 -15 9 -22 0 -25 66 -112 106 -141 50 -35 93 -54
105 -46 6 3 8 29 4 62 -6 49 -5 55 6 40 29 -35 83 -58 137 -58 33 0 52 4 52
12 0 6 12 0 28 -14 15 -14 55 -44 89 -67 143 -95 222 -105 343 -43 41 21 109
60 150 87 43 27 76 43 78 36 9 -26 126 5 147 39 13 22 25 8 25 -29 0 -71 42
-67 118 9 79 80 131 201 132 308 0 30 7 53 24 75 13 18 27 46 31 62 10 38 10
151 0 190 -19 78 -116 248 -170 297 l-35 33 12 160 c6 88 8 177 4 198 -13 70
-66 93 -146 64 -52 -19 -132 -62 -159 -86 l-23 -20 -33 24 c-48 37 -95 34
-134 -10 l-30 -35 -121 -4 -120 -4 -17 28 c-30 51 -100 66 -146 30 -14 -11
-28 -20 -32 -20 -3 0 -23 16 -43 35 -20 18 -48 39 -62 46 -14 6 -33 15 -42 20
-22 11 -67 10 -93 -4z m381 -118 c6 -5 14 -23 18 -41 l6 -31 53 8 c70 11 123
11 179 2 47 -8 47 -8 75 32 15 23 38 44 50 47 44 12 82 -30 87 -97 2 -26 50
-78 72 -79 20 0 179 -118 245 -181 36 -35 81 -91 99 -124 19 -33 37 -61 42
-63 4 -2 8 -9 8 -16 0 -7 7 -27 15 -43 22 -45 37 -139 30 -187 -10 -58 -29
-90 -89 -151 -55 -54 -118 -84 -151 -71 -36 13 7 106 57 122 25 8 23 24 -3 24
-21 0 -93 -66 -115 -104 -10 -20 -11 -20 -50 1 -23 11 -43 31 -48 46 -8 23 -5
31 19 57 16 16 36 32 44 35 18 5 45 44 37 52 -9 9 -48 -9 -82 -39 -19 -17 -37
-28 -40 -25 -8 8 14 99 29 117 20 25 81 67 120 84 38 15 51 46 20 46 -10 0
-31 -7 -47 -15 -15 -8 -29 -15 -31 -15 -1 0 -8 18 -15 40 -15 47 -111 165
-140 173 -12 3 -20 13 -20 26 0 29 -28 27 -39 -2 -15 -38 -69 -86 -106 -93
-44 -8 -73 0 -110 30 l-30 24 18 37 c21 44 16 55 -28 55 -37 0 -54 -15 -36
-33 6 -6 11 -26 11 -44 0 -27 -6 -37 -32 -53 -70 -43 -154 -38 -200 12 -15 16
-28 39 -28 50 0 11 -5 18 -12 15 -8 -2 -12 -17 -10 -33 2 -26 -3 -33 -36 -52
-22 -12 -51 -37 -66 -56 -26 -35 -26 -35 -55 -18 -52 30 -46 3 12 -56 62 -63
87 -120 87 -204 0 -55 -9 -59 -42 -20 -26 31 -54 45 -70 36 -5 -4 12 -28 38
-55 46 -46 47 -50 34 -75 -8 -14 -27 -32 -43 -40 -32 -17 -39 -14 -90 44 -29
32 -67 43 -67 19 0 -7 8 -17 19 -24 10 -6 28 -25 40 -42 l22 -30 -25 -7 c-42
-10 -174 25 -211 57 -35 31 -75 122 -75 173 0 47 56 207 79 226 3 3 15 22 26
44 39 74 174 212 280 284 124 84 135 94 135 121 1 75 84 123 136 80z m539
-567 c-5 -5 -187 -43 -190 -40 -10 18 -22 85 -16 91 4 4 25 -1 45 -12 44 -25
111 -37 120 -22 4 6 -1 23 -10 38 -12 21 -7 18 20 -11 20 -22 34 -41 31 -44z
m-606 -24 c1 -11 -21 -10 -39 2 -13 9 -12 12 5 25 18 14 20 14 27 -2 3 -10 7
-21 7 -25z m633 -81 c-30 -34 -41 -60 -48 -118 -5 -50 1 -81 30 -150 6 -13 -3
-23 -33 -40 -23 -12 -41 -29 -41 -38 0 -19 39 -61 57 -61 17 0 16 -10 -5 -37
-17 -22 -18 -22 -143 -11 -99 9 -169 9 -322 -1 -184 -13 -251 -9 -199 10 35
13 26 34 -33 73 -66 44 -74 60 -47 89 46 50 66 100 66 167 1 36 -2 76 -6 90
-5 17 -1 33 11 49 18 24 21 24 62 12 24 -7 63 -26 86 -42 25 -18 58 -30 80
-32 34 -2 38 0 37 21 -1 21 3 23 25 17 51 -13 157 -23 184 -18 17 4 29 14 33
28 5 19 18 25 102 41 l97 19 13 -23 c12 -21 11 -27 -6 -45z"/>
<path d="M820 1445 c-26 -31 13 -82 44 -56 22 18 20 48 -3 61 -25 13 -26 13
-41 -5z"/>
<path d="M1115 1430 c-14 -43 44 -67 68 -28 8 12 7 21 -2 32 -19 23 -58 20
-66 -4z"/>
<path d="M1210 851 c0 -63 4 -102 11 -107 20 -12 29 19 29 98 0 85 -5 108 -26
108 -11 0 -14 -21 -14 -99z"/>
<path d="M712 833 c2 -88 6 -108 18 -108 19 0 24 46 15 143 -5 53 -10 72 -21
72 -12 0 -14 -19 -12 -107z"/>
<path d="M1075 645 c-14 -11 -32 -13 -66 -9 -28 4 -49 2 -53 -4 -4 -7 -16 -7
-36 1 -35 13 -50 3 -28 -19 10 -10 31 -15 54 -15 22 1 48 1 59 0 74 -6 105 6
105 42 0 23 -8 23 -35 4z"/>
</g>
</svg>
